<svg width="20" height="20" fill="none" xmlns="http://www.w3.org/2000/svg"><path d="M18.948 6.303a6.526 6.526 0 00-.419-2.216 4.609 4.609 0 00-2.633-2.633 6.606 6.606 0 00-2.186-.42C12.748.99 12.443.979 10.001.979s-2.755 0-3.71.055a6.606 6.606 0 00-2.185.42 4.607 4.607 0 00-2.633 2.633 6.554 6.554 0 00-.419 2.185c-.043.963-.056 1.268-.056 3.71s0 2.754.056 3.71c.015.748.156 1.486.419 2.187a4.61 4.61 0 002.634 2.632 6.583 6.583 0 002.185.45c.963.043 1.268.056 3.71.056s2.755 0 3.71-.056a6.59 6.59 0 002.186-.42 4.615 4.615 0 002.633-2.632c.263-.7.404-1.438.419-2.187.043-.962.056-1.267.056-3.71-.002-2.442-.002-2.752-.058-3.71zM9.995 14.6a4.622 4.622 0 01-4.623-4.623A4.622 4.622 0 119.995 14.6zm4.807-8.34a1.077 1.077 0 110-2.155 1.078 1.078 0 010 2.156z" fill="#fff"/><path d="M9.995 12.98a3.003 3.003 0 100-6.006 3.003 3.003 0 000 6.006z" fill="#fff"/></svg>