<svg width="56" height="84" fill="none" xmlns="http://www.w3.org/2000/svg"><path d="M42.93 22.477h-2.612v-4.141a3.117 3.117 0 10-6.235 0v4.14H21.766L21.28 5.888a2.864 2.864 0 00-2.855-2.77 2.835 2.835 0 00-2.847 2.769l-.486 16.59H13.07a5.092 5.092 0 00-5.086 5.087V43.51c0 2.44.12 4.906.355 7.331l.204 2.11c.228 2.352.344 4.743.344 7.109v15.738a5.092 5.092 0 005.086 5.086h28.054a5.092 5.092 0 005.086-5.086v-15.74c0-2.363.116-4.758.343-7.11l.205-2.11a76.32 76.32 0 00.355-7.33V27.563a5.091 5.091 0 00-5.086-5.086zm-6.55-4.141a.82.82 0 111.64 0v4.14h-1.64v-4.14zM17.873 5.952a.563.563 0 01.945-.371c.103.097.162.23.166.371l.485 16.525h-2.08l.484-16.525zM45.72 43.509a74.36 74.36 0 01-.343 7.11l-.205 2.109a76.37 76.37 0 00-.355 7.33v15.739a2.793 2.793 0 01-2.789 2.789H13.973a2.792 2.792 0 01-2.79-2.79v-15.74c0-2.44-.119-4.905-.354-7.33l-.205-2.11a74.025 74.025 0 01-.343-7.107V27.562a2.792 2.792 0 012.79-2.789H42.93a2.792 2.792 0 012.789 2.79v15.946z" fill="#000"/><path d="M39.484 74.648h-6.398a1.148 1.148 0 000 2.297h6.398a1.148 1.148 0 100-2.297zm3.446-48.234H13.07a1.149 1.149 0 00-1.148 1.148V42a1.149 1.149 0 001.148 1.148h29.86A1.149 1.149 0 0044.078 42V27.562a1.149 1.149 0 00-1.148-1.148zm-1.15 14.438H14.22V28.71h27.56v12.14zM25.047 52.866h5.906a1.149 1.149 0 001.149-1.148V47.78a1.148 1.148 0 00-1.149-1.148h-5.906a1.148 1.148 0 00-1.149 1.148v3.938a1.15 1.15 0 001.149 1.148zm1.148-3.937h3.61v1.64h-3.61v-1.64zM23.898 59.92a1.15 1.15 0 001.149 1.15h5.906a1.149 1.149 0 001.149-1.15v-3.937a1.148 1.148 0 00-1.149-1.148h-5.906a1.149 1.149 0 00-1.149 1.148v3.938zm2.297-2.788h3.61v1.64h-3.61v-1.64zm5.907 7.054a1.148 1.148 0 00-1.149-1.148h-5.906a1.148 1.148 0 00-1.149 1.148v3.938a1.15 1.15 0 001.149 1.148h5.906a1.15 1.15 0 001.149-1.148v-3.938zm-2.297 2.79h-3.61v-1.641h3.61v1.64zM19.96 46.632h-5.905a1.148 1.148 0 00-1.149 1.148v3.938a1.15 1.15 0 001.149 1.148h5.906a1.149 1.149 0 001.148-1.148V47.78a1.148 1.148 0 00-1.148-1.148zm-1.148 3.937h-3.609v-1.64h3.61v1.64zm1.148 4.266h-5.905a1.149 1.149 0 00-1.149 1.148v3.938a1.15 1.15 0 001.149 1.148h5.906a1.149 1.149 0 001.148-1.148v-3.938a1.148 1.148 0 00-1.148-1.148zm-1.148 3.938h-3.609v-1.641h3.61v1.64zm1.148 4.265h-5.905a1.148 1.148 0 00-1.149 1.148v3.938a1.15 1.15 0 001.149 1.148h5.906a1.15 1.15 0 001.148-1.148v-3.938a1.148 1.148 0 00-1.148-1.148zm-1.148 3.938h-3.609v-1.641h3.61v1.64zm23.133-20.344H36.04a1.148 1.148 0 00-1.148 1.148v3.938a1.15 1.15 0 001.148 1.148h5.906a1.149 1.149 0 001.149-1.148V47.78a1.148 1.148 0 00-1.149-1.148zm-1.148 3.937h-3.61v-1.64h3.61v1.64zm1.148 4.266H36.04a1.149 1.149 0 00-1.148 1.148v3.938a1.15 1.15 0 001.148 1.148h5.906a1.149 1.149 0 001.149-1.148v-3.938a1.148 1.148 0 00-1.149-1.148zm-1.148 3.938h-3.61v-1.641h3.61v1.64zm1.148 4.265H36.04a1.148 1.148 0 00-1.148 1.148v3.938a1.15 1.15 0 001.148 1.148h5.906a1.15 1.15 0 001.149-1.148v-3.938a1.148 1.148 0 00-1.149-1.148zm-1.148 3.938h-3.61v-1.641h3.61v1.64z" fill="#000"/></svg>